<svg xmlns="http://www.w3.org/2000/svg" viewBox="0 0 1200 300" width="1200" height="300" font-family="'JetBrains Mono','Fira Code','Courier New',monospace">
<defs>
  <pattern id="grid" width="26" height="26" patternUnits="userSpaceOnUse">
    <circle cx="1.4" cy="1.4" r="1.4" fill="#1b2740"/>
  </pattern>
  <linearGradient id="rim" x1="0" y1="0" x2="1" y2="1">
    <stop offset="0%" stop-color="#f59e0b"/><stop offset="50%" stop-color="#22d3ee"/><stop offset="100%" stop-color="#8b5cf6"/>
  </linearGradient>
  
  <linearGradient id="flow" x1="0" y1="0" x2="1" y2="0">
    <stop offset="0%" stop-color="#f59e0b"/><stop offset="100%" stop-color="#22c55e"/>
  </linearGradient>
</defs>
<rect width="1200" height="300" rx="16" fill="#070b14"/>
<rect x="6" y="6" width="1188" height="288" rx="14" fill="#0a0f1c" stroke="url(#rim)" stroke-width="1.5"/>
<rect x="20" y="20" width="1160" height="260" rx="10" fill="url(#grid)" opacity="0.55"/>
<text x="40" y="52" font-size="13" fill="#f59e0b" font-weight="700" text-anchor="start">&gt;</text>
<text x="58" y="52" font-size="13" fill="#e2e8f0" font-weight="700" text-anchor="start" letter-spacing="1">execution_pipeline</text>
<text x="300" y="52" font-size="12" fill="#475569" font-weight="400" text-anchor="start">// how a client idea becomes a shipped system</text>
<rect x="1050" y="36" width="112" height="22" rx="11" fill="#22c55e" fill-opacity="0.12" stroke="#22c55e" stroke-opacity="0.5"/>
<circle cx="1068" cy="47" r="4" fill="#22c55e"><animate attributeName="opacity" values="1;0.25;1" dur="2s" repeatCount="indefinite"/></circle>
<text x="1080" y="51" font-size="10" fill="#4ade80" font-weight="700" text-anchor="start" letter-spacing="1.5">RUNNING</text>
<line x1="238" y1="166" x2="268" y2="166" stroke="#1e3a5f" stroke-width="2"/>
<line x1="238" y1="166" x2="268" y2="166" stroke="#22d3ee" stroke-width="2" stroke-dasharray="4 8"><animate attributeName="stroke-dashoffset" from="24" to="0" dur="1.2s" repeatCount="indefinite"/></line>
<path d="M261 161 L268 166 L261 171 Z" fill="#22d3ee"/>
<line x1="464" y1="166" x2="494" y2="166" stroke="#1e3a5f" stroke-width="2"/>
<line x1="464" y1="166" x2="494" y2="166" stroke="#22d3ee" stroke-width="2" stroke-dasharray="4 8"><animate attributeName="stroke-dashoffset" from="24" to="0" dur="1.2s" repeatCount="indefinite"/></line>
<path d="M487 161 L494 166 L487 171 Z" fill="#22d3ee"/>
<line x1="690" y1="166" x2="720" y2="166" stroke="#1e3a5f" stroke-width="2"/>
<line x1="690" y1="166" x2="720" y2="166" stroke="#22d3ee" stroke-width="2" stroke-dasharray="4 8"><animate attributeName="stroke-dashoffset" from="24" to="0" dur="1.2s" repeatCount="indefinite"/></line>
<path d="M713 161 L720 166 L713 171 Z" fill="#22d3ee"/>
<line x1="916" y1="166" x2="946" y2="166" stroke="#1e3a5f" stroke-width="2"/>
<line x1="916" y1="166" x2="946" y2="166" stroke="#22d3ee" stroke-width="2" stroke-dasharray="4 8"><animate attributeName="stroke-dashoffset" from="24" to="0" dur="1.2s" repeatCount="indefinite"/></line>
<path d="M939 161 L946 166 L939 171 Z" fill="#22d3ee"/>
<rect x="42" y="110" width="196" height="112" rx="10" fill="#0d1526" stroke="#f59e0b" stroke-opacity="0.5" stroke-width="1.5"/>
<rect x="42" y="110" width="196" height="4" rx="2" fill="#f59e0b"/>
<text x="58" y="144" font-size="11" fill="#475569" font-weight="700" text-anchor="start">01</text>
<text x="222" y="144" font-size="13" fill="#f59e0b" font-weight="700" text-anchor="end" letter-spacing="1">DISCOVER</text>
<line x1="58" y1="156" x2="222" y2="156" stroke="#1b2740" stroke-width="1"/>
<text x="58" y="180" font-size="11" fill="#64748b" font-weight="400" text-anchor="start">scope + requirements</text>
<rect x="58" y="194" width="164" height="6" rx="3" fill="#101c2e"/>
<rect x="58" y="194" width="164" height="6" rx="3" fill="#f59e0b" fill-opacity="0.85"><animate attributeName="width" values="0;164;164" keyTimes="0;0.55;1" dur="3.4s" begin="0.00s" repeatCount="indefinite"/></rect>
<circle cx="42" cy="166" r="5" fill="#0a0f1c" stroke="#f59e0b" stroke-width="2"/>
<circle cx="238" cy="166" r="5" fill="#0a0f1c" stroke="#f59e0b" stroke-width="2"/>
<rect x="268" y="110" width="196" height="112" rx="10" fill="#0d1526" stroke="#22d3ee" stroke-opacity="0.5" stroke-width="1.5"/>
<rect x="268" y="110" width="196" height="4" rx="2" fill="#22d3ee"/>
<text x="284" y="144" font-size="11" fill="#475569" font-weight="700" text-anchor="start">02</text>
<text x="448" y="144" font-size="13" fill="#22d3ee" font-weight="700" text-anchor="end" letter-spacing="1">DESIGN</text>
<line x1="284" y1="156" x2="448" y2="156" stroke="#1b2740" stroke-width="1"/>
<text x="284" y="180" font-size="11" fill="#64748b" font-weight="400" text-anchor="start">schema + architecture</text>
<rect x="284" y="194" width="164" height="6" rx="3" fill="#101c2e"/>
<rect x="284" y="194" width="164" height="6" rx="3" fill="#22d3ee" fill-opacity="0.85"><animate attributeName="width" values="0;164;164" keyTimes="0;0.55;1" dur="3.4s" begin="0.45s" repeatCount="indefinite"/></rect>
<circle cx="268" cy="166" r="5" fill="#0a0f1c" stroke="#22d3ee" stroke-width="2"/>
<circle cx="464" cy="166" r="5" fill="#0a0f1c" stroke="#22d3ee" stroke-width="2"/>
<rect x="494" y="110" width="196" height="112" rx="10" fill="#0d1526" stroke="#38bdf8" stroke-opacity="0.5" stroke-width="1.5"/>
<rect x="494" y="110" width="196" height="4" rx="2" fill="#38bdf8"/>
<text x="510" y="144" font-size="11" fill="#475569" font-weight="700" text-anchor="start">03</text>
<text x="674" y="144" font-size="13" fill="#38bdf8" font-weight="700" text-anchor="end" letter-spacing="1">BUILD</text>
<line x1="510" y1="156" x2="674" y2="156" stroke="#1b2740" stroke-width="1"/>
<text x="510" y="180" font-size="11" fill="#64748b" font-weight="400" text-anchor="start">frontend + backend</text>
<rect x="510" y="194" width="164" height="6" rx="3" fill="#101c2e"/>
<rect x="510" y="194" width="164" height="6" rx="3" fill="#38bdf8" fill-opacity="0.85"><animate attributeName="width" values="0;164;164" keyTimes="0;0.55;1" dur="3.4s" begin="0.90s" repeatCount="indefinite"/></rect>
<circle cx="494" cy="166" r="5" fill="#0a0f1c" stroke="#38bdf8" stroke-width="2"/>
<circle cx="690" cy="166" r="5" fill="#0a0f1c" stroke="#38bdf8" stroke-width="2"/>
<rect x="720" y="110" width="196" height="112" rx="10" fill="#0d1526" stroke="#8b5cf6" stroke-opacity="0.5" stroke-width="1.5"/>
<rect x="720" y="110" width="196" height="4" rx="2" fill="#8b5cf6"/>
<text x="736" y="144" font-size="11" fill="#475569" font-weight="700" text-anchor="start">04</text>
<text x="900" y="144" font-size="13" fill="#8b5cf6" font-weight="700" text-anchor="end" letter-spacing="1">AUTOMATE</text>
<line x1="736" y1="156" x2="900" y2="156" stroke="#1b2740" stroke-width="1"/>
<text x="736" y="180" font-size="11" fill="#64748b" font-weight="400" text-anchor="start">agents + workflows</text>
<rect x="736" y="194" width="164" height="6" rx="3" fill="#101c2e"/>
<rect x="736" y="194" width="164" height="6" rx="3" fill="#8b5cf6" fill-opacity="0.85"><animate attributeName="width" values="0;164;164" keyTimes="0;0.55;1" dur="3.4s" begin="1.35s" repeatCount="indefinite"/></rect>
<circle cx="720" cy="166" r="5" fill="#0a0f1c" stroke="#8b5cf6" stroke-width="2"/>
<circle cx="916" cy="166" r="5" fill="#0a0f1c" stroke="#8b5cf6" stroke-width="2"/>
<rect x="946" y="110" width="196" height="112" rx="10" fill="#0d1526" stroke="#22c55e" stroke-opacity="0.5" stroke-width="1.5"/>
<rect x="946" y="110" width="196" height="4" rx="2" fill="#22c55e"/>
<text x="962" y="144" font-size="11" fill="#475569" font-weight="700" text-anchor="start">05</text>
<text x="1126" y="144" font-size="13" fill="#22c55e" font-weight="700" text-anchor="end" letter-spacing="1">SHIP</text>
<line x1="962" y1="156" x2="1126" y2="156" stroke="#1b2740" stroke-width="1"/>
<text x="962" y="180" font-size="11" fill="#64748b" font-weight="400" text-anchor="start">deploy + handover</text>
<rect x="962" y="194" width="164" height="6" rx="3" fill="#101c2e"/>
<rect x="962" y="194" width="164" height="6" rx="3" fill="#22c55e" fill-opacity="0.85"><animate attributeName="width" values="0;164;164" keyTimes="0;0.55;1" dur="3.4s" begin="1.80s" repeatCount="indefinite"/></rect>
<circle cx="946" cy="166" r="5" fill="#0a0f1c" stroke="#22c55e" stroke-width="2"/>
<circle cx="1142" cy="166" r="5" fill="#0a0f1c" stroke="#22c55e" stroke-width="2"/>
<line x1="42" y1="248" x2="1158" y2="248" stroke="#1b2740" stroke-width="1"/>
<text x="42" y="274" font-size="11" fill="#475569" font-weight="400" text-anchor="start">avg. turnaround</text>
<text x="178" y="274" font-size="11" fill="#4ade80" font-weight="400" text-anchor="start">days, not weeks</text>
<text x="1158" y="274" font-size="11" fill="#334155" font-weight="400" text-anchor="end">shah-hussain · lahore, pk</text>
</svg>